<svg xmlns="http://www.w3.org/2000/svg" viewBox="0 0 512 512">
  <defs>
    <linearGradient id="grad1" x1="0%" y1="0%" x2="100%" y2="100%">
      <stop offset="0%" style="stop-color:#3498db;stop-opacity:1" />
      <stop offset="100%" style="stop-color:#2980b9;stop-opacity:1" />
    </linearGradient>
    <filter id="shadow" x="-20%" y="-20%" width="140%" height="140%">
      <feDropShadow dx="0" dy="4" stdDeviation="8" flood-color="#000000" flood-opacity="0.2"/>
    </filter>
  </defs>
  
  <!-- Background Circle -->
  <circle cx="256" cy="256" r="240" fill="url(#grad1)" />
  
  <!-- Shopping Bag Icon -->
  <g filter="url(#shadow)" transform="translate(106, 106) scale(0.6)">
    <!-- Bag Body -->
    <path d="M80 128 L420 128 L400 440 C400 462 382 480 360 480 L140 480 C118 480 100 462 100 440 L80 128 Z" fill="#ffffff"/>
    
    <!-- Bag Handles -->
    <path d="M170 128 L170 80 C170 53 192 32 220 32 L280 32 C308 32 330 53 330 80 L330 128" stroke="#ffffff" stroke-width="40" fill="none" stroke-linecap="round"/>
    
    <!-- Checkmark -->
    <path d="M160 280 L230 350 L340 220" stroke="#3498db" stroke-width="50" fill="none" stroke-linecap="round" stroke-linejoin="round"/>
  </g>
</svg>
